<?xml version="1.0" encoding="utf-8"?>
<!-- Generator: Adobe Illustrator 25.4.1, SVG Export Plug-In . SVG Version: 6.00 Build 0)  -->
<svg version="1.1" id="Layer_1" xmlns="http://www.w3.org/2000/svg" xmlns:xlink="http://www.w3.org/1999/xlink" x="0px" y="0px"
	 viewBox="0 0 253.1 253.1" style="enable-background:new 0 0 253.1 253.1;" xml:space="preserve">
<style type="text/css">
	.st0{fill:none;}
	.st1{fill:#FCD6D6;}
	.st2{fill:#EF1616;}
	.st3{fill:#FCDFDF;}
	.st4{fill:#F56C6C;}
	.st5{fill:#F9B7B7;}
	.st6{fill:#EF1818;}
	.st7{fill:#FBD2D2;}
	.st8{fill:#F13737;}
	.st9{fill:#FCD8D8;}
	.st10{fill:#FCD9D9;}
	.st11{fill:#FCDADA;}
	.st12{fill:#FCDCDC;}
	.st13{fill:#FDECEC;}
	.st14{fill:#F02626;}
	.st15{fill:#FEF1F1;}
	.st16{fill:#FAC1C1;}
	.st17{fill:#FBD3D3;}
	.st18{fill:#FABFBF;}
	.st19{fill:#FEF0F0;}
	.st20{fill:#F45A5A;}
	.st21{fill:#FBD1D1;}
	.st22{fill:#FBCDCD;}
</style>
<g id="Layer_2_00000062182373216435030730000000098294174389317788_">
	<g id="Layer_1-2">
		<rect class="st0" width="253.1" height="253.1"/>
		<path class="st1" d="M92.9,187c-12,1-16.8-9.2-15.9-17.7c0.4-3.3,2.1-6.3,4.8-8.3c5.6-4,6.4-10.1,7.3-16.1c1-7-0.1-14.1,0.1-21.1
			c0.5-17.6,7.9-31.8,22.1-42.3c1.6-1.2,1.7-1.2,1-2.1c0.2-1,1-1.3,1.7-1.5c7-1.6,14.3-1.8,21.4-0.5c18.1,10.1,26.9,25.7,28.2,46.1
			c0.7,9.9,0.7,19.8,3.6,29.4c1,3.1,2.7,6,4.9,8.4c4.3,4.9,6.4,10.5,3.4,16.9c-0.6,1.4-1.4,2.8-3,3.3c-1.7,0.3-3.5,0.4-5.2,0.3H98.7
			c-1.1,0-2.2-0.1-3.4,0c-3,0.2-3.4,0.9-2.5,3.9C93,186.2,93,186.6,92.9,187z"/>
		<path class="st2" d="M135.8,78.3c-7.9-1.3-15.7-1.4-23.4,1c-7.6,1.8-14,5.9-19.7,11.2c-1,0.9-1.9,1.9-3.4,1.6
			c-1.1-0.2-2.1-1-2.4-2c-0.5-1.5,0.2-2.6,1.2-3.5c5.9-5.8,13.1-10.1,21-12.6c2.3-0.7,4.7-1.2,7.1-1.8c0.8-0.6,1.6-0.2,2.6-0.3
			c-1.8,0.2-2.8-0.4-2-2.3c1-4.7,5.4-7.9,10.2-7.3c4.3,0.3,8.5,3.9,8.7,8.1c0.1,1.7,0.6,1.7,1.8,2c21.6,5,35.6,18.2,41.7,39.6
			c1.6,5.8,1.4,11.8,2,17.7c0.8,7,1.2,14.1,1.9,21.1c-0.9,2.5-2.7,2.4-4.8,1.8c-2.6-2.1-2.4-5.2-2.7-8.1c-0.9-9.1-1-18.4-2.6-27.4
			c-2.8-16.5-12.5-28.1-27.7-34.9C142.1,80.5,138.9,79.4,135.8,78.3z"/>
		<path class="st3" d="M66.1,237c2.2-1.8,4.9-1.6,7.3-1.9c5.2-0.7,10.5-1.1,15.8-1.3c21.5-0.9,43.1-1,64.6-0.5
			c11.2,0.3,22.6,0.5,33.7,2.3c1.4,0.1,2.8,0.6,4,1.5c-3.6,2-7.4,1.8-11,2.2c-11.4,1-22.8,1-34.2,1.5c-10.1,0.4-20.2,0.7-30.3,0.3
			c-10.9-0.4-21.8,0-32.7-1.2c-5-0.5-10.2-0.5-15.1-1.7C67.4,238,66.7,237.6,66.1,237z"/>
		<path class="st2" d="M92.7,186.5c-1.9-0.6-2.2-2.1-1.7-3.7c0.6-1.8,2.1-1.9,3.7-1.9c15,0,30,0,45,0c11.1,0,22.3,0,33.4,0
			c1-0.6,2.1-0.9,3.2-0.8c1.9,0,3.8-0.4,5.6-1c5.2-1.8,6.7-7.6,3.1-11.7c-1.6-1.8-3.8-3.4-2-6.3c1-1,2-1.9,3.5-1.1
			c5.4,2.8,7.7,7.4,7.3,13.3s-3.5,9.9-8.9,12.1c-6.6,2.7-13.6,1.8-20.5,1.7c-7.6-0.2-15.3-0.6-22.9,0.2c-3.6,0.4-7.1,0.1-10.7,0.1
			C118.2,187.6,105.5,186.7,92.7,186.5z"/>
		<path class="st2" d="M74.7,186.9c-7.1-0.1-12.8-4-14.9-10.2c-2.1-6.4,0.2-12,6.1-16.9c4.4-3.6,5.3-9.1,5.9-14.4
			c0.7-6.3,0.8-12.7,0.2-19c-0.2-3.8,0-7.6,0.8-11.3c0.3-1.8,1.4-3,3.4-2.7s2.8,1.7,2.5,3.5c-1.5,9.1,0.1,18.2-0.6,27.3
			c-0.3,5.3-1.6,10.5-3.8,15.4c-1.3,2.7-2.7,5.1-5.5,6.7c-3.1,1.8-4.5,5.4-3.5,8.8c1.1,3.6,4.3,6.2,8,6.6c1,0.1,2,0.1,3.1,0
			c2-0.1,3.2,0.9,3.4,2.8c0.1,2.1-1.3,3.1-3.3,3.3C75.9,187,75.3,186.9,74.7,186.9z"/>
		<path class="st4" d="M237,62.9h7.3c1.7,0,3.4-0.4,3.4,2.5c0,2.9-1.9,2.3-3.5,2.3c-3.9,0-7.8,0.1-11.6,0c-1.1,0-2.8,0.8-3.2-0.9
			s-0.5-3.2,0.8-4.6c2.8-3.1,5.5-6.3,8.2-9.5c0.4-0.5,0.7-1,1.3-1.7c-2.2-0.7-4.2-0.3-6.1-0.4c-1.6-0.1-3.2,0.5-3.2-2.3
			s1.9-2.1,3.4-2.1c3.5-0.1,6.9-0.1,10.4,0c1.1,0,2.7-0.7,3.2,0.9c0.5,1.5,0.2,3.1-0.9,4.3c-2.7,3.1-5.3,6.2-8,9.3
			C237.8,61.2,236.9,61.6,237,62.9z"/>
		<path class="st2" d="M143.2,187.1c-1.4,11.7-12.7,17.8-22.3,14.1c-5.6-2.2-9.2-6.1-10.3-12.2c-0.6-1.5-0.2-2.3,1.5-2.2
			c1.1,0,2.2,0,3.3,0c1.6,0.1,1.7,1.5,2.2,2.5c1.2,2.8,3.7,5,6.6,5.9c4.6,1.1,9.3-1.3,11.2-5.7c0.5-1,0.6-2.4,2.1-2.7
			C139.4,186.9,141.3,186.4,143.2,187.1z"/>
		<path class="st5" d="M206.8,81.2h5.9c0.9,0,1.6,0.3,1.6,1.4s-0.4,1.7-1.6,1.7c-2.8,0-5.5,0-8.3,0c-2.6,0-3.1-1.2-1.8-3.5
			c1.6-2.6,4.3-4.3,6-7.7c-1.6,0-3,0-4.3,0c-0.8,0.1-1.5-0.5-1.6-1.3c0-0.1,0-0.3,0-0.4c0.1-1.2,0.9-1.2,1.7-1.2c2.4,0,4.9,0,7.3,0
			c0.8,0,2-0.4,2.3,0.8c0.2,1-0.1,2.1-0.8,2.8C211.3,76.1,209.3,78.4,206.8,81.2z"/>
		<path class="st6" d="M86.9,96.5c-1.2,2.5-2.5,5.5-4.9,7.7c-0.9,0.8-2.1,0.5-3.1-0.2c-1.1-0.7-1.6-2-1.1-3.2c1-2.5,2.4-4.8,4.1-6.8
			c0.8-1,2.2-1.3,3.3-0.6C86.3,93.8,86.8,94.7,86.9,96.5z"/>
		<path class="st7" d="M184.6,92.1c-1.5-0.9-3.8,0.4-3.8-1.2c0-1.9,2.3-1,3.5-1s3.3-0.9,3.9,0.7s-1.2,2.6-2.1,3.8
			c-0.7,0.8-1.8,1.4-2.1,2.6c1,0.6,2,0.2,3,0.3c0.8,0.1,1.4,0.3,1.4,1.2s-0.7,1.2-1.4,1.2c-1.7,0-3.5,0-5.2,0
			c-2.5-0.1-2.2-1.4-1.1-2.8C181.9,95.3,183.2,93.8,184.6,92.1z"/>
		<path class="st1" d="M186.7,159.9c-1.2,0-2.3,0.5-3.1,1.3c-0.3,0.3-0.7,0.4-1.1,0.2c-2.8-1.1-5.3-6.6-4.4-9.7
			c1.7,0.8,3.7,0.3,4.8-1.2C183.7,153.8,185,157,186.7,159.9z"/>
		<path class="st8" d="M116.2,187.1c-1.2,0-2.5,0-3.7-0.1c-1.5-0.1-2,0.6-2,2c-0.2-1.3-1.4-2.2-2.8-2c-5,0.1-9.9,0-14.9,0
			c-0.1-0.2-0.1-0.3-0.2-0.5h69.6c0.8-0.2,1.6,0,2.3,0.5l-21.4,0.1h-6.3c-1,0.8-2.2,1.1-3.4,0.9c-3.9,0-7.7,0.1-11.6-0.1
			C120,187.8,118,188.4,116.2,187.1z"/>
		<path class="st9" d="M98,65.5c-0.5-0.1-0.9-0.6-0.9-1.1c-0.1-0.7-0.1-1.5-1-1.6c-0.8-0.1-1.9-0.1-1.7-1.2s1.1-0.6,1.8-0.7
			c1.8-0.2,0.1-3,2-2.8c1.5,0.1,0.1,2.4,1.7,2.8c0.7,0.2,1.9-0.2,2,0.9c0,1.4-1.3,0.8-2.1,1.1C98.4,63.3,99.5,65.2,98,65.5z"/>
		<path class="st9" d="M193.5,59.9l-0.6,0.2c-0.8,0.2-1.2,1.9-2.2,0.8s0.6-1.5,1-2.2c0.7-1.3-2.4-2-0.7-3.3c1.1-0.8,1.6,1.9,3.1,0.9
			c0.6-0.4,1-1.7,1.9-0.8s-0.2,1.4-0.5,2.1c-0.1,0.2-0.2,0.4-0.2,0.6C196.1,60,197.8,62.9,193.5,59.9z"/>
		<path class="st9" d="M202,127.7c0.1,2.3-1.2,3.2-2.6,3.2c-1.5,0-2.7-1.1-2.7-2.5c0-0.1,0-0.1,0-0.2c-0.1-1.3,0.9-2.5,2.2-2.7
			c0.2,0,0.3,0,0.5,0C200.7,125.4,201.9,126.4,202,127.7z"/>
		<path class="st9" d="M132,48c-1.4-0.1-2.5-1.3-2.4-2.8c0-0.1,0-0.2,0-0.2c-0.1-1.3,0.9-2.4,2.2-2.5c0.1,0,0.2,0,0.3,0
			c1.5,0,2.6,1.2,2.6,2.7c0,0.1,0,0.1,0,0.2C134.8,47.1,133.7,47.9,132,48z"/>
		<path class="st10" d="M156,27.2c-0.2,1.7-1.2,2.9-2.9,2.9c-1.7,0-3-1.4-2.9-3.1s1.4-3,3.1-2.9l0,0C154.9,24.2,155.9,25.4,156,27.2
			z"/>
		<path class="st10" d="M67.9,48c1.9,0,2.7,1.4,2.7,3.2c0,1.5-1.2,2.8-2.8,2.8c-0.1,0-0.2,0-0.3,0c-1.6,0-2.9-1.3-3-2.9
			c0-0.1,0-0.3,0-0.4C64.7,48.8,65.9,48,67.9,48z"/>
		<path class="st10" d="M172.9,49.2c-1.2-0.3-2.2-0.7-2.1-2.2c0-1.2,0.5-2,1.8-2c1.2-0.1,2.2,0.7,2.3,1.9c0,0,0,0.1,0,0.1
			C175,48.3,174,48.9,172.9,49.2z"/>
		<path class="st10" d="M57.8,114.2c-0.3,1.2-1,2.2-2.3,2c-1.2-0.1-2-1.1-1.9-2.3c0,0,0,0,0-0.1c0-1.3,0.8-1.8,2-1.8
			C57.1,112,57.5,112.9,57.8,114.2z"/>
		<path class="st10" d="M101.2,30.2c1.3,0.7,2.7,1.6,3,3.3c0.1,0.5-0.8,1.6-1.4,1.2c-1.3-0.9-2.8-1.8-3.1-3.6
			C99.6,30.4,100.3,30.2,101.2,30.2z"/>
		<path class="st11" d="M102.5,39.5c0.9,0.3,1.8,0.9,1.5,1.5c-0.6,1.4-1.8,2.5-3.2,3.1c-0.8,0.3-1.4-0.6-1.2-1.3
			C100.1,41.2,101.4,40.4,102.5,39.5z"/>
		<path class="st12" d="M105.6,30.3c0.2-0.9-0.5-2.4,1-2.4c1.7,0,1.4,1.6,1.4,2.8s0,2.6-1.5,2.4S105.9,31.3,105.6,30.3z"/>
		<path class="st10" d="M100.2,35.7c0.9,0.2,2.3-0.4,2.3,1.2c0,1.8-1.6,1.2-2.5,1.2s-2.7,0.3-2.6-1.3S99.1,35.9,100.2,35.7z"/>
		<path class="st10" d="M113.8,38.3c-1.1-0.2-2.5,0.4-2.5-1.2s1.3-1.2,2.2-1.3s2.3-0.1,2.4,1.3C116,38.8,114.5,37.9,113.8,38.3z"/>
		<path class="st9" d="M113.6,31.5c-0.6,1.3-1.7,2.3-3.1,2.8c-0.4,0.1-1.5-0.4-1.2-1c0.8-1.3,1.8-2.7,3.5-3.1
			C113.3,30.2,113.6,30.7,113.6,31.5z"/>
		<path class="st9" d="M110.8,40.2c1.1,0.7,2.3,1.5,2.7,3c0.1,0.4-0.2,0.9-0.6,1c-0.1,0-0.2,0-0.3,0c-1.4-0.4-2.5-1.4-3-2.8
			C109.3,40.7,110,40.3,110.8,40.2z"/>
		<path class="st1" d="M107.6,45.6c-0.4,1-1,1.1-1.9,0.6c-0.6-1-0.2-2-0.3-3c-0.1-1.6,0.8-1.9,2.1-1.3l0,0
			C108,43.1,108,44.4,107.6,45.6z"/>
		<path class="st10" d="M67,80.4c-0.1,0.8,0.2,1.9-1,1.8s-0.8-1.2-0.8-1.9s-0.3-1.9,0.8-2C67.4,78.3,66.8,79.7,67,80.4z"/>
		<path class="st10" d="M64.2,82.6c0,0.6-0.3,1-0.7,1c-1.5-0.2-2.2-1.4-2.9-2.5c-0.2-0.3,0.2-0.9,0.6-0.8
			C62.8,80.4,63.3,81.7,64.2,82.6z"/>
		<path class="st10" d="M60.9,86.8c-1,0-2.1,0-2.2-1c-0.1-1.3,1.1-0.8,1.8-0.9s1.9-0.3,2,0.8S61.4,86.6,60.9,86.8z"/>
		<path class="st9" d="M71.7,84.9c0.6,0.2,1.7-0.3,1.7,0.7s-0.9,1.1-1.8,1.1s-1.9,0-1.9-1C69.8,84.5,71,85.1,71.7,84.9z"/>
		<path class="st1" d="M65.2,90.9c0.1-0.9,0.1-1.8,1.2-1.5s0.7,1.3,0.7,2.1s-0.1,1.7-0.9,1.6C64.8,92.9,65.3,91.6,65.2,90.9z"/>
		<path class="st10" d="M63.8,88.8c-0.5,1.1-1.4,1.9-2.5,2.2c-0.4,0.1-0.9-0.3-0.8-0.7c0.4-1.1,1.3-2,2.4-2.5
			C63.4,87.6,63.8,88.2,63.8,88.8z"/>
		<path class="st10" d="M71.5,81.3c-0.7,0.8-1.3,1.8-2.4,2.1c-0.4,0.1-0.9-0.6-0.7-1.1c0.4-1,1.3-1.8,2.3-2.1
			C71.3,80.2,71.7,80.6,71.5,81.3z"/>
		<path class="st11" d="M169,77.9c0.7,0.2,1.1,0.6,0.9,1.2c-0.4,0.9-1.1,1.7-2.1,2c-0.4,0.2-0.8-0.3-0.7-0.7
			C167.3,79.1,168.3,78.6,169,77.9z"/>
		<path class="st12" d="M168.8,75.9c-0.1,1.1-0.9,1.1-1.6,1s-1.6,0.3-1.7-0.7c0-0.8,0.8-1,1.6-1S168.5,75.1,168.8,75.9z"/>
		<path class="st10" d="M71.8,90.4c-0.4,0.7-0.9,0.8-1.4,0.5c-0.8-0.6-1.9-1-1.7-2.2c0.1-0.4,0.5-0.7,0.9-0.6c0.1,0,0.2,0.1,0.3,0.2
			C70.7,88.8,71.4,89.5,71.8,90.4z"/>
		<path class="st11" d="M170,73.5c0,0.6-0.4,1-0.8,0.8c-1-0.4-1.7-1.2-2-2.2c-0.1-0.5,0.4-0.7,0.8-0.6C169,71.7,169.8,72.5,170,73.5
			z"/>
		<path class="st12" d="M68.1,67.7c-0.2,0.6-0.5,1.1-1.2,1.1c-0.6-0.1-1.1-0.6-1-1.2c0-0.8,0.5-1,1.2-1S68.2,66.9,68.1,67.7z"/>
		<path class="st11" d="M147.6,59.2c0.2-0.7,0.5-1.1,1.1-1c0.6,0,1.2,0.5,1.2,1.1c0,0.1,0,0.2,0,0.3c0,0.5-0.5,0.8-0.9,0.8
			c-0.1,0-0.1,0-0.2,0C148.1,60.2,147.6,59.7,147.6,59.2z"/>
		<path class="st1" d="M173.2,73.3c1.4,0.1,1.8-1.6,3.1-1.7C175.9,74.2,175.4,74.5,173.2,73.3L173.2,73.3z"/>
		<path class="st9" d="M176.6,81.3c-1.3-0.6-2.2-1.1-2.4-2.3c0-0.1,0.5-0.5,0.6-0.5C175.7,79.1,176.6,79.6,176.6,81.3z"/>
		<path class="st10" d="M178.9,76.4c-1,0.7-2.4,0.7-3.5,0C176.4,75.5,177.4,75.5,178.9,76.4z"/>
		<path class="st10" d="M171.7,79c1.1,1.8,1,2.8,0.4,4C170.8,81.9,171.4,80.8,171.7,79z"/>
		<path class="st1" d="M171.3,70.2c0.2-0.4,0.7-0.7,1.2-0.6c0.5,1.2,0.5,2.5,0,3.7h-1.2C170.9,72.3,170.9,71.2,171.3,70.2z"/>
		<path class="st13" d="M107.5,41.9c-3.3,0.3-1.2,2.9-1.8,4.3c-1.1-1.1-0.7-2.5-0.5-3.7C105.4,40.9,106.5,41,107.5,41.9z"/>
		<path class="st14" d="M116.7,69.5c-0.2,1.8,1.2,2,2.5,2.6h-3C116.2,71.2,116,70.2,116.7,69.5z"/>
		<path class="st15" d="M172.6,73.2v-3.7c1.2,1,0.4,2.5,0.7,3.7L172.6,73.2L172.6,73.2z"/>
		<path class="st13" d="M107.6,45.6c0-1.2,0-2.5,0-3.7C108.4,43,108.4,44.5,107.6,45.6z"/>
		<path class="st15" d="M171.3,70.2c0,1,0,2,0.1,3.1c-0.9-0.8-0.9-2.1-0.2-3C171.2,70.3,171.3,70.2,171.3,70.2z"/>
		<path class="st16" d="M178.1,151.8c0.8,3.8,1.4,7.6,5.5,9.4c-0.9,1.6-0.3,3.6,1.2,4.6c2.7,1.9,3.8,5.3,2.9,8.4
			c-0.9,3.4-3.4,5.2-6.7,6c-2.6,0.6-5.2,0.9-7.9,0.7c4.8-6.9,3.8-13-1.5-18.9c-4.7-5.2-6.4-11.2-7.1-17.8c-1-9.9-1.2-19.9-2.9-29.7
			c-2.8-16-11.9-28.1-25.9-36.3c18.5,2.7,35.3,19.3,37.9,38.1c1.3,9.1,1.7,18.3,2.6,27.5C176.5,146.6,176.4,149.4,178.1,151.8z"/>
		<path class="st17" d="M103.4,164.3c-4.7,0-8.5-3.7-8.5-8.4c0,0,0-0.1,0-0.1c0-4.2,4.4-8.7,8.7-8.7c4.8,0.1,8.6,4,8.6,8.8
			c0,0.1,0,0.1,0,0.2C112.1,160.8,108.4,164.3,103.4,164.3z"/>
		<path class="st17" d="M156.6,155.9c0,4.9-3.4,8.4-8.1,8.4c-5.3,0-8.5-3.4-8.6-8.6c-0.1-4.7,3.6-8.2,8.6-8.5
			C153.3,146.9,156.6,150.7,156.6,155.9z"/>
		<path class="st6" d="M146.9,134.7c4.9,0,9.1,3.4,10.1,8.1c0.2,0.8,0.8,2-0.7,2.2c-1,0.1-2.4,0.8-2.9-1.2c-0.8-3.3-2.9-5.4-6.5-5.4
			c-3.7-0.1-5.9,2-6.8,5.4c-0.5,1.9-1.9,1.3-2.9,1.2c-1.4-0.2-0.7-1.4-0.6-2.2C137.7,138,142,134.6,146.9,134.7z"/>
		<path class="st6" d="M105.6,134.7c5-0.1,9.3,3.4,10.3,8.3c0.2,0.9,0.6,2-0.9,2c-1,0-2.2,0.7-2.7-1.1c-0.8-3.5-3-5.5-6.7-5.5
			c-3.2,0-5.3,1.5-6.5,5.4c-0.6,1.9-1.8,1.4-2.8,1.3c-1.7-0.2-0.8-1.5-0.6-2.4C96.7,137.9,100.8,134.7,105.6,134.7z"/>
		<path class="st6" d="M119.8,164.3c-1.3-3-0.3-5.4,2.2-7.2c2.7-2,6.4-2,9.1,0c2.5,1.8,3.5,4.2,2.1,7.2c-0.9,0.3-1.5-0.3-2.1-0.8
			c-2.9-2.2-5.9-2.1-8.9-0.1C121.5,163.9,120.8,164.6,119.8,164.3z"/>
		<path class="st18" d="M119.8,164.3c1.9-0.9,3.1-2.8,5.4-3.2c3.4-0.5,5.8,1.2,8.1,3.2C129.1,169.4,123.8,169.4,119.8,164.3z"/>
		<path class="st19" d="M122.3,71.4c0.6-2.2,1.8-3.1,3.6-3.2s3,0.9,3.7,3.2C129.6,71.4,122.3,71.4,122.3,71.4z"/>
		<path class="st1" d="M121.6,187.2l15.3-0.1c-1.3,6.6-6.9,10.4-12.8,8.6c0-0.5,2.2-0.1,0.3-1.5
			C122.3,192.6,120.6,190.3,121.6,187.2z"/>
		<path class="st20" d="M121.6,187.2c0.8,3.8,0.9,4.1,4.6,8.3l-2.1,0.2c-4.6-1.1-7-4.1-7.8-8.6L121.6,187.2z"/>
		<path class="st20" d="M154.7,27.1c-0.1,1-0.5,1.7-1.4,1.7c-1,0.1-1.9-0.6-2-1.6c0-0.1,0-0.2,0-0.3c0-0.9,0.8-1.6,1.7-1.5
			c0,0,0,0,0,0C153.9,25.4,154.7,26.1,154.7,27.1C154.7,27.1,154.7,27.1,154.7,27.1z"/>
		<path class="st20" d="M69.4,50.9c-0.3,1-0.8,1.9-1.8,1.8c-1-0.1-1.7-0.9-1.7-1.8c0-1.1,0.8-1.6,1.8-1.6
			C68.6,49.2,69.4,49.9,69.4,50.9C69.4,50.8,69.4,50.9,69.4,50.9z"/>
		<path class="st21" d="M103.5,150.1c3.9,0,5.8,1.8,5.8,5.4s-2.3,6.3-5.9,6.3c-3.1,0.1-5.7-2.4-5.8-5.5c0-0.1,0-0.2,0-0.3
			C97.7,152.1,99.6,150.1,103.5,150.1z"/>
		<path class="st21" d="M148.6,150.1c3.8,0,5.6,1.8,5.6,5.6c0,3.4-2.4,6-5.5,6.1c-3.7,0-6.3-2.5-6.2-6S144.8,150.1,148.6,150.1z"/>
		<path class="st22" d="M103.8,152c2.1,0.1,3.8,1.8,3.7,3.9c0,0.1,0,0.2,0,0.3c-0.3,2-2,3.5-4,3.6c-1.8,0.3-4.2-2.4-3.9-4.3
			c0.1-2.1,1.9-3.7,4-3.6C103.7,152,103.7,152,103.8,152z"/>
		<path class="st22" d="M148.5,152c2.6-0.1,3.7,1.6,3.8,3.8c0.2,2.5-1.8,3.6-3.8,4c-1.8,0.4-4.1-2.2-4.1-4.2
			C144.5,153.5,146.3,151.9,148.5,152z"/>
	</g>
</g>
</svg>
